<?xml version="1.0" standalone="no"?>
<!DOCTYPE svg PUBLIC "-//W3C//DTD SVG 20010904//EN"
 "http://www.w3.org/TR/2001/REC-SVG-20010904/DTD/svg10.dtd">
<svg version="1.0" xmlns="http://www.w3.org/2000/svg"
 width="1000.000000pt" height="1000.000000pt" viewBox="0 0 1000.000000 1000.000000"
 preserveAspectRatio="xMidYMid meet">

<g transform="translate(0.000000,1000.000000) scale(0.100000,-0.100000)"
fill="#000000" stroke="none">
<path d="M4626 8655 c-26 -26 -16 -74 43 -204 l48 -107 -106 -49 c-58 -27
-187 -87 -286 -133 -99 -46 -293 -133 -431 -192 -318 -137 -355 -156 -440
-225 -144 -116 -280 -307 -339 -476 -80 -224 -61 -571 42 -785 72 -149 241
-321 456 -463 95 -63 249 -153 342 -199 l39 -20 -39 -19 c-56 -28 -509 -237
-690 -318 -268 -120 -289 -131 -353 -183 -176 -142 -260 -325 -250 -549 8
-177 66 -310 188 -433 125 -124 258 -181 437 -188 132 -5 225 12 323 59 36 17
205 94 375 171 171 77 409 185 530 240 121 55 297 134 390 175 207 92 278 137
376 239 151 156 235 332 274 574 57 357 -70 714 -329 924 -22 18 -131 85 -241
149 -335 192 -345 198 -345 208 0 5 5 9 10 9 6 0 117 50 248 111 130 61 269
126 308 144 l71 33 54 -109 c65 -132 83 -152 135 -147 32 2 43 10 65 43 14 22
120 234 234 470 360 745 357 740 357 795 0 62 -27 108 -82 139 -36 20 -456
128 -1120 287 -189 45 -269 53 -294 29z"/>
</g>
</svg>
